<?xml version="1.0" encoding="iso-8859-1"?>
<!-- Generator: Adobe Illustrator 19.0.0, SVG Export Plug-In . SVG Version: 6.00 Build 0)  -->
<svg version="1.1" id="Capa_1" xmlns="http://www.w3.org/2000/svg" xmlns:xlink="http://www.w3.org/1999/xlink" x="0px" y="0px"
	 viewBox="0 0 512 512" style="enable-background:new 0 0 512 512;" xml:space="preserve">
<g>
	<g>
		<path d="M497,211c-8.291,0-15,6.709-15,15v15h-60.835c-1.912-21.16-7.852-41.439-17.342-60H437c24.814,0,45-20.186,45-45V88.237
			C499.422,82.024,512,65.53,512,46c0-24.814-20.186-46-45-46c-24.814,0-45,21.186-45,46c0,19.53,12.578,36.024,30,42.237V136
			c0,8.276-6.724,15-15,15h-52.927c-6.883-8.307-14.484-16.113-23.04-23.071c-38.76-31.538-90.604-43.682-140.38-33.237
			c-37.083,7.733-70.252,28.33-93.281,56.309H75c-8.276,0-15-6.724-15-15V88.237C77.422,82.024,90,65.53,90,46
			C90,21.186,69.814,0,45,0S0,21.186,0,46c0,19.53,12.578,36.024,30,42.237V136c0,24.814,20.186,44.9,45,44.9h33.184
			c-9.448,18.514-15.361,38.86-16.959,60.1H30v-15c0-8.291-6.709-15-15-15s-15,6.709-15,15v60c0,8.291,6.709,15,15,15
			s15-6.709,15-15v-15h61.467c3.351,22.954,14.108,44.004,30.412,60H75c-24.814,0-45,20.186-45,45v47.763
			C12.578,429.976,0,446.47,0,466c0,24.814,20.186,46,45,46s45-21.186,45-46c0-19.53-12.578-36.024-30-42.237V376
			c0-8.276,6.724-15,15-15h75v15c0,24.814,21.186,45,46,45h15v-45c0-8.291,6.709-15,15-15s15,6.709,15,15v45h30v-45
			c0-8.291,6.709-15,15-15c8.291,0,15,6.709,15,15v45h16c24.814,0,45-20.186,45-45v-15h75c8.276,0,15,6.724,15,15v47.763
			c-17.422,6.213-30,22.707-30,42.237c0,24.814,20.186,46,45,46c24.814,0,45-21.186,45-46c0-19.53-12.578-36.024-30-42.237V376
			c0-24.814-20.186-45-45-45h-47.042c10.869-10.554,19.704-23.198,25.23-37.764c2.736-7.191,4.371-14.659,5.46-22.236H482v15
			c0,8.227,6.74,15,15,15c8.265,0,15-6.768,15-15v-60C512,217.709,505.291,211,497,211z M196,301c-24.814,0-46-20.186-46-45v-30
			c0-5.2,2.695-10.02,7.119-12.759c4.409-2.754,9.917-2.974,14.59-0.659l61,30C237.792,245.131,241,250.316,241,256
			C241,280.814,220.814,301,196,301z M362,256c0,24.814-20.186,45-45,45c-24.814,0-46-20.186-46-45
			c0-5.684,3.208-10.869,8.291-13.418l61-30c4.658-2.329,10.181-2.095,14.59,0.659C359.305,215.98,362,220.8,362,226V256z"/>
	</g>
</g>
<g>
</g>
<g>
</g>
<g>
</g>
<g>
</g>
<g>
</g>
<g>
</g>
<g>
</g>
<g>
</g>
<g>
</g>
<g>
</g>
<g>
</g>
<g>
</g>
<g>
</g>
<g>
</g>
<g>
</g>
</svg>
